PathFileType	4	(X/Y/Z)	c:/Users/goper/Files/vsCode/490R/osim_files/C03/C03_fast_04.trc
DataRate	CameraRate	NumFrames	NumMarkers	Units                	OrigDataRate	OrigDataStartFrame	OrigNumFrames
250.00	250.00	8	36	mm	250.0	2120	2826
                Frame#	Time	LPSIS			LASIS			LTH1			LTH2			LTH3			LTH4			LLFE			LMFE			LSH1			LSH2			LSH3			LSH4			LLMAL			LMMAL			LCAL			LMTP5			LTOE			LMTP1			RPSIS			RASIS			RTH1			RTH2			RTH3			RTH4			RLFE			RMFE			RSH1			RSH2			RSH3			RSH4			RLMAL			RMMAL			RCAL			RMTP1			RTOE			RMTP5		
		X1	Y1	Z1	X2	Y2	Z2	X3	Y3	Z3	X4	Y4	Z4	X5	Y5	Z5	X6	Y6	Z6	X7	Y7	Z7	X8	Y8	Z8	X9	Y9	Z9	X10	Y10	Z10	X11	Y11	Z11	X12	Y12	Z12	X13	Y13	Z13	X14	Y14	Z14	X15	Y15	Z15	X16	Y16	Z16	X17	Y17	Z17	X18	Y18	Z18	X19	Y19	Z19	X20	Y20	Z20	X21	Y21	Z21	X22	Y22	Z22	X23	Y23	Z23	X24	Y24	Z24	X25	Y25	Z25	X26	Y26	Z26	X27	Y27	Z27	X28	Y28	Z28	X29	Y29	Z29	X30	Y30	Z30	X31	Y31	Z31	X32	Y32	Z32	X33	Y33	Z33	X34	Y34	Z34	X35	Y35	Z35	X36	Y36	Z36

2120	8.47600	-3275.23706	1007.63324	282.31174	-3467.08765	957.86267	324.39807	-3340.39087	599.19824	367.35223	0.00000	0.00000	0.00000	-3414.21851	604.58289	385.05487	-3412.28662	541.51404	380.06921	-3357.91187	461.20135	369.28125	-3387.64038	436.38596	263.58533	-3184.37109	408.98499	348.27444	-3149.78223	377.69989	344.22528	-3217.16650	363.28415	371.69260	-3177.95972	339.48816	366.11014	-3038.48584	253.99432	330.18539	-3073.38208	227.51486	261.84671	-2997.79761	304.60876	283.44833	-3001.83130	108.68367	352.61163	-3040.18701	80.54246	307.35757	-3029.20898	97.98095	263.95511	-3285.74951	1012.68585	168.44843	-3470.97168	987.06732	124.06123	0.00000	0.00000	0.00000	0.00000	0.00000	0.00000	-3509.44556	615.97913	94.11513	-3531.28662	558.95251	108.65600	-3534.89551	488.12888	129.39769	-3499.72900	506.24323	230.97607	0.00000	0.00000	0.00000	-3485.20679	242.40695	116.48521	-3459.56665	294.49695	110.79724	0.00000	0.00000	0.00000	-3507.79272	101.51604	145.71893	-3514.30957	104.93943	227.10641	0.00000	0.00000	0.00000	-3634.14355	56.50594	240.71477	0.00000	0.00000	0.00000	-3620.99585	45.21247	131.68932
2121	8.48000	-3280.89014	1008.24323	282.01477	-3472.75732	958.92255	324.30215	-3350.38159	599.89453	366.70831	0.00000	0.00000	0.00000	-3423.97070	605.85486	384.97406	-3422.63281	543.01233	379.92596	-3369.80615	462.28860	368.95621	0.00000	0.00000	0.00000	-3194.75000	409.42117	347.87219	0.00000	0.00000	0.00000	-3229.68384	364.55194	372.00079	-3189.85669	340.38895	366.01743	-3050.00488	256.34628	330.10312	-3067.38184	235.50899	253.78484	-3007.59595	306.28604	282.42853	-3013.43335	111.02129	353.54303	-3053.07373	83.42121	309.02948	-3041.63135	99.71238	265.21997	-3291.51514	1013.49628	168.23300	-3476.62622	987.75458	123.67644	0.00000	0.00000	0.00000	0.00000	0.00000	0.00000	-3512.56958	615.94720	94.06392	-3534.16650	558.83258	108.58699	-3537.09595	487.81345	129.23827	-3502.99170	506.62332	231.18402	0.00000	0.00000	0.00000	-3485.28467	242.51616	117.23174	-3459.92725	294.68192	111.55956	0.00000	0.00000	0.00000	-3507.94653	101.55584	145.93849	-3514.16919	104.79180	227.66266	0.00000	0.00000	0.00000	-3634.19092	56.41067	240.75049	0.00000	0.00000	0.00000	-3621.00317	45.19483	131.68889
2122	8.48400	-3286.27417	1009.08698	281.75641	-3478.41870	960.05780	324.21899	-3360.50342	600.72113	365.86978	0.00000	0.00000	0.00000	-3433.66797	607.18610	384.74783	-3433.04126	544.45752	379.70193	-3381.61328	463.44843	368.55072	-3351.08032	456.50085	237.51382	-3206.45044	410.65854	348.07123	-3171.85596	379.31741	343.68512	-3241.76221	365.60483	371.69379	-3201.82715	341.56604	365.79279	-3061.12451	258.48474	329.82013	0.00000	0.00000	0.00000	-3018.45850	307.46890	281.69348	-3025.99634	113.07712	354.64575	-3066.11865	85.62805	310.52313	-3054.25928	101.16788	266.44598	-3297.22729	1014.32367	167.90953	-3482.23584	988.40747	123.33761	0.00000	0.00000	0.00000	0.00000	0.00000	0.00000	-3515.72876	616.06342	93.95994	-3536.75757	558.73138	108.49503	-3539.12524	487.51526	129.01300	-3505.31836	506.40048	231.05681	0.00000	0.00000	0.00000	-3485.29736	242.64735	117.98709	-3460.38550	294.82761	112.29546	0.00000	0.00000	0.00000	-3508.09717	101.59977	146.07106	-3514.27441	104.76263	227.79633	0.00000	0.00000	0.00000	-3634.22485	56.33131	240.74725	0.00000	0.00000	0.00000	-3621.01001	45.13985	131.67264
2123	8.48800	-3291.80908	1009.96130	281.41919	-3484.14160	961.27161	324.19379	-3370.77197	601.79431	365.36090	0.00000	0.00000	0.00000	-3443.37256	608.65259	384.51636	-3443.50269	546.01215	379.47076	-3393.19751	464.79980	368.15112	0.00000	0.00000	0.00000	-3218.06885	412.02618	348.01328	-3182.67407	380.21500	343.85150	-3253.71460	366.92795	371.35318	-3213.80054	343.02191	365.48068	-3071.85449	260.31445	329.18451	-3118.07983	229.58765	266.69583	-3028.47363	308.58063	280.62341	-3039.66675	115.03308	355.91150	-3079.51025	87.62613	311.86578	-3067.32300	102.54958	267.55228	-3302.52979	1015.37054	167.60707	-3487.82251	989.04181	123.03963	0.00000	0.00000	0.00000	0.00000	0.00000	0.00000	-3518.65747	616.13068	93.95409	-3539.41724	558.65881	108.45292	-3541.12256	487.34363	128.81065	-3508.50586	506.86331	231.23917	0.00000	0.00000	0.00000	-3485.35693	242.83543	118.58236	-3460.84351	294.93463	112.82145	0.00000	0.00000	0.00000	-3508.25098	101.64868	146.24120	-3514.40234	104.75616	227.95222	0.00000	0.00000	0.00000	-3634.29321	56.28575	240.77800	0.00000	0.00000	0.00000	-3620.83691	45.45097	131.02876
2124	8.49200	-3300.20996	1010.58905	281.17422	-3489.94385	962.62610	324.15945	0.00000	0.00000	0.00000	0.00000	0.00000	0.00000	-3451.08740	609.28741	383.59787	-3454.00684	547.64990	379.16302	-3404.95435	466.27582	367.69501	-3433.26367	442.40448	261.31610	-3229.43945	413.55460	347.87656	-3194.42773	382.34445	344.14505	0.00000	0.00000	0.00000	-3225.62573	344.59006	365.08038	-3083.93823	261.89886	329.22992	0.00000	0.00000	0.00000	-3038.70239	309.29611	279.87939	-3052.78296	116.60641	356.75076	-3093.37305	89.51171	313.07538	-3080.79688	103.78706	268.61554	-3310.93359	1016.27368	167.43243	-3493.29932	989.60773	122.79194	0.00000	0.00000	0.00000	0.00000	0.00000	0.00000	-3521.58838	616.29700	93.91187	-3541.98706	558.63318	108.42137	-3543.09277	487.26468	128.62308	-3511.18311	507.00137	231.28041	0.00000	0.00000	0.00000	-3485.59399	243.05962	119.16187	-3461.55615	295.07257	113.32539	0.00000	0.00000	0.00000	-3508.41577	101.68943	146.36797	-3514.49756	104.74677	228.11255	0.00000	0.00000	0.00000	-3634.34717	56.23555	240.77774	0.00000	0.00000	0.00000	-3621.06299	45.03932	131.60071
2125	8.49600	-3302.71265	1012.22675	280.75027	-3495.67993	964.00226	324.19135	-3391.36938	604.02100	364.07434	0.00000	0.00000	0.00000	-3461.16968	610.99103	383.40161	-3464.57227	549.36597	378.89899	-3416.44019	467.95563	367.31818	0.00000	0.00000	0.00000	-3243.77417	416.24213	348.62427	-3206.79028	384.19455	343.48047	-3276.62207	369.97626	370.30017	-3237.43921	346.27850	364.66248	-3094.90918	263.35153	329.10275	-3142.07080	232.32155	266.47879	-3049.89087	309.66852	279.59521	-3066.58569	118.01206	357.75818	-3107.09546	90.72060	313.84335	-3094.35938	104.75908	269.63354	-3316.51831	1017.03381	166.86224	-3498.83545	990.24475	122.61433	0.00000	0.00000	0.00000	0.00000	0.00000	0.00000	-3524.42456	616.44775	93.85453	-3544.45337	558.59265	108.29362	-3544.73364	487.07492	128.23926	-3513.75195	507.17719	231.25447	0.00000	0.00000	0.00000	-3485.90356	243.28122	119.54205	-3476.93481	290.76556	113.15244	0.00000	0.00000	0.00000	-3508.56177	101.73503	146.50471	-3514.59058	104.75959	228.22015	0.00000	0.00000	0.00000	-3634.39307	56.19360	240.77393	0.00000	0.00000	0.00000	-3620.89722	45.34637	130.93991
2126	8.50000	-3308.44116	1013.41827	280.29523	-3501.35376	965.37030	324.24066	0.00000	0.00000	0.00000	0.00000	0.00000	0.00000	-3471.11377	612.77008	383.16943	-3475.06982	551.12921	378.58228	-3428.04321	469.62833	366.80963	-3456.13965	446.02820	260.09064	-3255.52051	418.02786	348.13153	-3218.16699	385.89441	342.89551	0.00000	0.00000	0.00000	-3249.22314	348.08972	364.33444	-3106.79395	264.68509	328.36108	-3154.28516	233.35237	266.35236	-3059.84863	310.08633	278.90466	-3080.71875	119.20670	358.74063	-3121.20654	92.00101	314.88232	-3108.12524	105.65542	270.54456	-3322.07471	1018.14423	166.53188	-3504.37695	990.80975	122.48014	0.00000	0.00000	0.00000	0.00000	0.00000	0.00000	-3527.20898	616.67896	93.78714	-3546.81055	558.63696	108.13052	-3546.45654	487.00659	127.95760	-3516.22314	507.34515	231.24605	0.00000	0.00000	0.00000	-3486.30615	243.57541	119.80626	-3477.55200	291.10803	113.41019	0.00000	0.00000	0.00000	-3508.74438	101.81348	146.58678	-3514.75562	104.81698	228.29910	0.00000	0.00000	0.00000	-3634.51196	56.22159	240.74266	0.00000	0.00000	0.00000	-3621.17651	44.93149	131.54140
2127	8.50400	-3313.74731	1014.89386	279.86594	-3506.90063	966.77325	324.27670	0.00000	0.00000	0.00000	0.00000	0.00000	0.00000	-3481.00098	614.52185	382.87250	-3485.59082	553.01514	378.21344	-3439.52710	471.53113	366.26791	-3467.47266	447.99222	259.44232	-3267.20557	419.73462	347.57932	0.00000	0.00000	0.00000	-3301.69214	374.83136	370.77148	-3260.91089	349.90546	363.88730	-3119.33179	265.61523	328.45654	-3166.75708	234.25400	266.21625	-3070.95117	310.02402	278.84985	-3094.62500	120.23608	359.69873	-3135.88623	93.37775	315.67300	-3121.99976	106.36795	271.35623	-3327.74463	1019.24890	166.14835	-3509.80493	991.50525	122.44116	0.00000	0.00000	0.00000	0.00000	0.00000	0.00000	-3529.89185	616.93024	93.66872	-3549.14209	558.69543	107.93446	-3547.98975	486.87152	127.61034	-3518.59424	507.47314	231.17805	0.00000	0.00000	0.00000	-3486.99146	243.95293	119.97470	-3478.39526	291.41623	113.49567	0.00000	0.00000	0.00000	-3508.88794	101.88470	146.68449	-3514.88428	104.91135	228.35201	0.00000	0.00000	0.00000	-3634.61768	56.25665	240.71895	0.00000	0.00000	0.00000	-3621.24365	44.91793	131.51089
